<?xml version="1.0" standalone="no"?>
<!DOCTYPE svg PUBLIC "-//W3C//DTD SVG 20010904//EN"
 "http://www.w3.org/TR/2001/REC-SVG-20010904/DTD/svg10.dtd">
<svg version="1.0" xmlns="http://www.w3.org/2000/svg"
 width="980.000000pt" height="980.000000pt" viewBox="0 0 980.000000 980.000000"
 preserveAspectRatio="xMidYMid meet">
<metadata>
Created by potrace 1.14, written by Peter Selinger 2001-2017
</metadata>
<g transform="translate(0.000000,980.000000) scale(0.100000,-0.100000)"
fill="#000000" stroke="none">
<path d="M1258 9789 c-43 -4 -124 -24 -182 -43 -405 -136 -750 -443 -941 -841
-102 -211 -129 -334 -129 -570 1 -144 5 -189 27 -295 131 -625 577 -1212 1122
-1475 574 -277 1220 -224 2020 166 399 194 680 394 1060 756 l170 162 3 -881
c1 -485 0 -884 -3 -886 -3 -3 -374 -9 -825 -12 l-820 -7 -56 -39 c-95 -65
-169 -148 -220 -246 l-24 -47 0 -2098 0 -2099 36 -67 c43 -82 115 -161 199
-222 l64 -45 2136 0 2136 0 62 42 c88 60 139 110 192 187 l46 67 6 2110 6
2109 -38 74 c-43 85 -123 175 -209 233 l-59 40 -821 8 c-451 5 -822 9 -823 9
-2 1 -3 400 -3 887 l0 887 173 -169 c427 -418 891 -715 1437 -919 624 -233
1162 -230 1655 10 398 193 718 527 940 980 83 169 133 307 164 447 110 510
-30 959 -424 1353 -187 186 -370 304 -597 384 -148 52 -192 54 -992 48 -711
-5 -878 -11 -1231 -42 -722 -64 -1205 -218 -1428 -455 -75 -79 -126 -175 -167
-310 l-27 -91 -18 88 c-51 243 -221 421 -518 544 -311 128 -833 219 -1417 249
-531 27 -1506 38 -1682 19z m692 -1694 c0 -685 -1 -736 -17 -742 -22 -9 -216
41 -318 81 -148 58 -290 174 -409 334 -174 230 -264 522 -212 680 38 114 184
275 302 333 84 42 124 46 407 48 l247 1 0 -735z m6453 720 c94 -20 156 -57
245 -146 81 -82 145 -178 163 -244 17 -61 5 -197 -27 -290 -96 -286 -315 -560
-537 -671 -84 -43 -256 -100 -325 -110 -42 -5 -50 -3 -57 12 -5 11 -10 344
-13 742 l-4 722 244 0 c172 0 263 -5 311 -15z m-5297 -35 c366 -29 641 -70
733 -111 39 -17 43 -21 37 -46 -30 -125 -341 -480 -587 -671 -167 -129 -330
-235 -343 -222 -8 8 -12 175 -14 535 l-3 525 24 0 c13 0 82 -5 153 -10z m3764
-477 c0 -492 -5 -563 -36 -563 -24 0 -70 27 -197 117 -223 159 -439 363 -587
555 -74 96 -130 193 -130 227 0 24 50 41 220 75 212 42 372 59 698 74 l32 2 0
-487z m-500 -5858 l0 -985 -490 0 -490 0 0 985 0 985 490 0 490 0 0 -985z"/>
<path d="M428 4390 c-144 -9 -186 -27 -279 -120 -98 -99 -128 -165 -139 -316
-12 -145 -12 -3151 -1 -3425 l8 -196 34 -63 c68 -129 202 -229 335 -251 87
-15 1207 -23 1477 -11 256 12 281 19 384 101 138 109 243 350 163 372 -14 4
-121 7 -237 8 l-213 1 0 1955 0 1955 -707 -1 c-390 -1 -761 -5 -825 -9z"/>
<path d="M7840 2445 l0 -1955 -209 0 c-115 0 -223 -3 -241 -7 l-33 -6 6 -58
c11 -122 124 -292 234 -352 99 -53 163 -58 808 -64 342 -3 686 -1 819 5 229
11 229 11 295 43 84 42 195 152 234 232 28 57 28 59 37 350 12 359 12 2886 1
3200 l-8 227 -33 68 c-43 86 -147 192 -223 227 -33 16 -89 30 -139 35 -45 6
-413 10 -815 10 l-733 0 0 -1955z"/>
</g>
</svg>
